<svg xmlns="http://www.w3.org/2000/svg" version="1.1" xmlns:xlink="http://www.w3.org/1999/xlink" width="200" height="200"><svg xmlns="http://www.w3.org/2000/svg" version="1.1" xmlns:xlink="http://www.w3.org/1999/xlink" viewBox="0 0 200 200"><rect width="200" height="200" fill="url('#gradient')"></rect><defs><linearGradient id="SvgjsLinearGradient1001" gradientTransform="rotate(45 0.5 0.5)"><stop offset="0%" stop-color="#a4a7a1"></stop><stop offset="100%" stop-color="#d1d1d1"></stop></linearGradient></defs><g><g fill="#12152c" transform="matrix(1.836588282184137,0,0,1.836588282184137,8.764741799968235,113.59309671902952)" stroke="#1d2f64" stroke-width="0.3"><path d="M9.17-4.81L12.58-4.81Q12.51-3.33 11.78-2.19Q11.04-1.05 9.72-0.43Q8.40 0.20 6.70 0.20L6.70 0.20Q3.90 0.20 2.29-1.63Q0.67-3.46 0.67-6.79L0.67-6.79L0.67-7.49Q0.67-9.58 1.40-11.15Q2.13-12.71 3.50-13.57Q4.86-14.42 6.66-14.42L6.66-14.42Q9.25-14.42 10.82-13.06Q12.39-11.70 12.61-9.31L12.61-9.31L9.19-9.31Q9.15-10.61 8.54-11.17Q7.92-11.74 6.66-11.74L6.66-11.74Q5.38-11.74 4.79-10.78Q4.19-9.82 4.16-7.72L4.16-7.72L4.16-6.72Q4.16-4.44 4.73-3.47Q5.30-2.49 6.70-2.49L6.70-2.49Q7.88-2.49 8.51-3.05Q9.13-3.60 9.17-4.81L9.17-4.81ZM26.24-7.47L26.24-6.82Q26.24-4.74 25.47-3.13Q24.70-1.53 23.28-0.67Q21.86 0.20 20.04 0.20Q18.22 0.20 16.82-0.64Q15.41-1.47 14.62-3.03Q13.84-4.58 13.80-6.59L13.80-6.59L13.80-7.39Q13.80-9.48 14.57-11.08Q15.33-12.68 16.76-13.54Q18.19-14.41 20.02-14.41L20.02-14.41Q21.83-14.41 23.24-13.55Q24.66-12.70 25.44-11.11Q26.23-9.52 26.24-7.47L26.24-7.47ZM22.75-6.76L22.75-7.41Q22.75-9.53 22.05-10.63Q21.34-11.73 20.02-11.73L20.02-11.73Q17.44-11.73 17.29-7.86L17.29-7.86L17.29-6.82Q17.29-4.73 17.98-3.60Q18.67-2.48 20.04-2.48L20.04-2.48Q21.34-2.48 22.04-3.58Q22.74-4.69 22.75-6.76L22.75-6.76ZM37.04-14.22L39.02-5.30L40.65-14.22L44.05-14.22L41.04 0L37.48 0L35.58-8.11L33.71 0L30.17 0L27.14-14.22L30.55-14.22L32.18-5.30L34.13-14.22L37.04-14.22ZM50.05 0.20L50.05 0.20Q47.62 0.20 46.11-1.25Q44.61-2.71 44.61-5.03L44.61-5.03L44.61-5.30Q44.61-6.92 45.21-8.16Q45.81-9.40 46.96-10.08Q48.12-10.76 49.70-10.76L49.70-10.76Q51.92-10.76 53.21-9.38Q54.50-8.00 54.50-5.53L54.50-5.53L54.50-4.25L47.96-4.25Q48.13-3.36 48.73-2.85Q49.33-2.34 50.27-2.34L50.27-2.34Q51.84-2.34 52.71-3.44L52.71-3.44L54.22-1.66Q53.60-0.81 52.48-0.31Q51.35 0.20 50.05 0.20ZM49.68-8.22L49.68-8.22Q48.23-8.22 47.96-6.31L47.96-6.31L51.28-6.31L51.28-6.56Q51.30-7.35 50.88-7.79Q50.46-8.22 49.68-8.22ZM65.63-5.36L65.63-5.20Q65.63-2.60 64.56-1.20Q63.49 0.20 61.53 0.20L61.53 0.20Q59.92 0.20 58.94-1.08L58.94-1.08L58.80 0L55.85 0L55.85-15L59.14-15L59.14-9.72Q60.06-10.76 61.51-10.76L61.51-10.76Q63.49-10.76 64.56-9.35Q65.63-7.93 65.63-5.36L65.63-5.36ZM62.33-5.40L62.33-5.40Q62.33-6.92 61.93-7.57Q61.52-8.22 60.68-8.22L60.68-8.22Q59.57-8.22 59.14-7.37L59.14-7.37L59.14-3.17Q59.56-2.33 60.70-2.33L60.70-2.33Q61.87-2.33 62.18-3.47L62.18-3.47Q62.33-4.02 62.33-5.40ZM72.62-2.97L72.62-2.97Q72.62-3.39 72.18-3.64Q71.74-3.90 70.51-4.17Q69.28-4.44 68.48-4.89Q67.68-5.33 67.26-5.97Q66.84-6.60 66.84-7.42L66.84-7.42Q66.84-8.88 68.04-9.82Q69.24-10.76 71.18-10.76L71.18-10.76Q73.27-10.76 74.54-9.81Q75.81-8.87 75.81-7.32L75.81-7.32L72.51-7.32Q72.51-8.59 71.17-8.59L71.17-8.59Q70.65-8.59 70.30-8.31Q69.95-8.02 69.95-7.59L69.95-7.59Q69.95-7.15 70.38-6.88Q70.81-6.60 71.75-6.43Q72.70-6.25 73.41-6.01L73.41-6.01Q75.79-5.19 75.79-3.07L75.79-3.07Q75.79-1.62 74.51-0.71Q73.22 0.20 71.18 0.20L71.18 0.20Q69.82 0.20 68.76-0.29Q67.70-0.78 67.10-1.62Q66.50-2.46 66.50-3.39L66.50-3.39L69.58-3.39Q69.60-2.66 70.07-2.32Q70.54-1.98 71.27-1.98L71.27-1.98Q71.94-1.98 72.28-2.26Q72.62-2.53 72.62-2.97ZM79.37-3.19L79.37-3.19Q80.15-3.19 80.66-2.73Q81.18-2.27 81.18-1.54Q81.18-0.82 80.66-0.36Q80.15 0.11 79.37 0.11L79.37 0.11Q78.57 0.11 78.06-0.36Q77.55-0.83 77.55-1.54Q77.55-2.26 78.06-2.72Q78.57-3.19 79.37-3.19ZM86.85-15L86.85 0L83.54 0L83.54-15L86.85-15ZM98.68-5.36L98.68-5.20Q98.68-2.60 97.61-1.20Q96.53 0.20 94.58 0.20L94.58 0.20Q92.97 0.20 91.98-1.08L91.98-1.08L91.85 0L88.90 0L88.90-15L92.19-15L92.19-9.72Q93.11-10.76 94.56-10.76L94.56-10.76Q96.53-10.76 97.61-9.35Q98.68-7.93 98.68-5.36L98.68-5.36ZM95.38-5.40L95.38-5.40Q95.38-6.92 94.98-7.57Q94.57-8.22 93.73-8.22L93.73-8.22Q92.62-8.22 92.19-7.37L92.19-7.37L92.19-3.17Q92.61-2.33 93.75-2.33L93.75-2.33Q94.91-2.33 95.22-3.47L95.22-3.47Q95.38-4.02 95.38-5.40Z"></path></g></g></svg><style>@media (prefers-color-scheme: light) { :root { filter: none; } }
@media (prefers-color-scheme: dark) { :root { filter: none; } }
</style></svg>