<svg xmlns="http://www.w3.org/2000/svg" width="512" height="512" viewBox="0 0 512 512">
  <defs>
    <linearGradient id="gradient" x1="0%" y1="0%" x2="100%" y2="100%">
      <stop offset="0%" stop-color="#0d47a1" />
      <stop offset="100%" stop-color="#2196f3" />
    </linearGradient>
  </defs>
  <rect width="512" height="512" fill="#ffffff" rx="100" ry="100" />
  <g transform="translate(80, 130) scale(0.7)">
    <path fill="url(#gradient)" d="M66.97 330.12c-35.63 0-64.59-29.15-64.59-64.92 0-35.77 28.96-64.92 64.59-64.92 35.63 0 64.59 29.15 64.59 64.92 0 35.77-28.96 64.92-64.59 64.92zm0-109.47c-24.37 0-44.32 19.95-44.32 44.32 0 24.37 19.95 44.32 44.32 44.32s44.32-19.95 44.32-44.32c0-24.37-19.95-44.32-44.32-44.32z"/>
    <path fill="url(#gradient)" d="M239.3 330.12c-35.63 0-64.59-29.15-64.59-64.92 0-35.77 28.96-64.92 64.59-64.92 35.63 0 64.59 29.15 64.59 64.92 0 35.77-28.96 64.92-64.59 64.92zm0-109.47c-24.37 0-44.32 19.95-44.32 44.32 0 24.37 19.95 44.32 44.32 44.32s44.32-19.95 44.32-44.32c0-24.37-19.95-44.32-44.32-44.32z"/>
    <text x="370" y="270" font-family="Poppins, Arial, sans-serif" font-size="140" font-weight="700" fill="#64b5f6">lb</text>
  </g>
</svg>
